<?xml version="1.0" encoding="UTF-8"?>
<svg id="Layer_1" data-name="Layer 1" xmlns="http://www.w3.org/2000/svg" viewBox="0 0 56 48">
  <defs>
    <style>
      .cls-1 {
        fill: #fff;
      }
    </style>
  </defs>
  <g>
    <path class="cls-1" d="m12.97,20.05c0,2.03-.33,3.88-1.01,5.58-.07.69-.58,1.56-1.67,2.75-1.45,1.59-3.3,2.43-5.54,2.43-1.85,0-3.04-.33-3.73-.94l-.22-.18v-.29c0-.4.18-.76.58-1.16l.18-.18h.29c2.83,0,5.04-1.05,6.7-3.19,1.23-1.56,1.85-2.97,1.85-4.17,0-1.23-.8-2.68-2.35-4.24l-.36-.36,2.14-4.02.65.65c1.67,1.67,2.5,4.13,2.5,7.32Z"/>
    <path class="cls-1" d="m21.78,22.81c0,.98-.07,2.03-.25,3.12-.22,1.56-.54,2.43-1.05,2.83-.29.25-.65.25-.76.25-.29,0-.54-.11-.72-.29-.22-.22-.29-.54-.25-.91.04-.58.04-1.23.04-1.92,0-1.27-.07-2.43-.18-3.51l-.76-7.46c-.18-1.67-.25-3.37-.25-5.04,0-.65.04-1.34.14-1.99v-.14s1.41-2.46,1.41-2.46c.33-.54.76-.65.98-.65.51,0,1.01.33,1.01,1.09,0,.14,0,.47-.11,1.99-.07,1.38-.11,1.85-.11,1.99,0,1.99.14,4.06.43,6.16v.07s0,.22,0,.22l.4,4.46c.04.72.04,1.45.04,2.21Z"/>
    <path class="cls-1" d="m37.17,20.05c0,2.03-.33,3.88-1.01,5.58-.07.69-.58,1.56-1.67,2.75-1.45,1.59-3.3,2.43-5.54,2.43-1.85,0-3.04-.33-3.73-.94l-.22-.18v-.29c0-.4.18-.76.58-1.16l.18-.18h.29c2.83,0,5.04-1.05,6.7-3.19,1.23-1.56,1.85-2.97,1.85-4.17,0-1.23-.8-2.68-2.35-4.24l-.36-.36,2.14-4.02.65.65c1.67,1.67,2.5,4.13,2.5,7.32Z"/>
    <path class="cls-1" d="m35.57,4.95l-.4.58c-.51.76-1.05,1.63-1.56,2.57l-.4.72-.62-.58c-.62-.58-1.41-1.12-2.43-1.67l-.62-.36.4-.62c.62-.94,1.09-1.77,1.41-2.46l.33-.69.65.43c.54.36,1.45.94,2.64,1.67l.58.4Z"/>
    <path class="cls-1" d="m54.7,21.72c0,1.81-.65,3.44-1.92,4.93l-.14.14-.22.04c-1.49.36-2.97.58-4.35.65-.33.04-.62.04-.91.04-.33,0-.69-.04-1.01-.11-2.06-.36-4.17-1.81-4.49-5.98l-.51-6.67c-.11-1.49-.29-3.33-.54-5.43l-.51-4.27,3.22-3.37,1.12,16.34c.11,1.7.36,2.9.69,3.62.43.94,1.16,1.41,2.17,1.45,4.27-.04,4.64-.72,4.64-.76,0-.07-.11-.62-1.52-2.72l-.25-.36,2.5-3.66.54.8c.98,1.49,1.49,3.26,1.49,5.32Z"/>
    <path class="cls-1" d="m55.2,31.28l-.36.54c-.33.54-.87,1.38-1.56,2.5l-.36.62-.58-.43c-.98-.72-1.88-1.34-2.64-1.85l-.58-.4.4-.58c.58-.8,1.05-1.59,1.45-2.35l.33-.69,3.91,2.64Z"/>
  </g>
  <g>
    <path class="cls-1" d="m5.82,46.31v-6.19h2.58c.46,0,.85.07,1.17.2.31.13.55.31.71.55.16.24.24.51.24.82,0,.24-.05.45-.15.63-.1.18-.23.34-.41.46-.17.12-.37.21-.6.25v.06c.25.01.48.08.69.2.21.12.38.29.51.51.13.22.19.48.19.78,0,.33-.08.63-.25.89-.17.26-.41.47-.73.62-.32.15-.71.23-1.17.23h-2.78Zm1.5-3.65h.83c.16,0,.31-.03.44-.08s.23-.13.3-.24c.07-.1.11-.23.11-.37,0-.21-.07-.37-.22-.49-.15-.12-.35-.18-.6-.18h-.85v1.36Zm0,2.44h.93c.32,0,.56-.06.72-.18s.23-.29.23-.51c0-.16-.04-.3-.11-.41-.07-.12-.18-.21-.32-.27-.14-.06-.3-.1-.49-.1h-.95v1.48Z"/>
    <path class="cls-1" d="m14.51,46.31h-1.61l2.09-6.19h1.99l2.09,6.19h-1.61l-1.45-4.63h-.05l-1.45,4.63Zm-.21-2.44h3.36v1.14h-3.36v-1.14Z"/>
    <path class="cls-1" d="m21.43,46.31v-.85l3.01-4.12h-3v-1.22h4.9v.85l-3.01,4.12h3v1.22h-4.9Z"/>
    <path class="cls-1" d="m30.28,46.31h-1.61l2.09-6.19h1.99l2.09,6.19h-1.61l-1.45-4.63h-.05l-1.45,4.63Zm-.21-2.44h3.36v1.14h-3.36v-1.14Z"/>
    <path class="cls-1" d="m38.56,46.31h-1.61l2.09-6.19h1.99l2.09,6.19h-1.61l-1.45-4.63h-.05l-1.45,4.63Zm-.21-2.44h3.36v1.14h-3.36v-1.14Z"/>
    <path class="cls-1" d="m45.49,46.31v-6.19h2.56c.46,0,.86.08,1.2.25.34.17.6.4.78.71.18.31.27.68.27,1.1s-.09.79-.28,1.09c-.19.3-.45.53-.8.68-.34.16-.75.23-1.22.23h-1.62v-1.18h1.34c.23,0,.41-.03.57-.09.15-.06.27-.15.35-.27.08-.12.12-.28.12-.47s-.04-.35-.12-.48c-.08-.13-.19-.22-.35-.28-.15-.06-.34-.1-.57-.1h-.74v4.99h-1.5Zm3.49-2.83l1.54,2.83h-1.63l-1.51-2.83h1.6Z"/>
  </g>
</svg>